<?xml version="1.0" encoding="UTF-8" standalone="no"?>
<!DOCTYPE svg PUBLIC "-//W3C//DTD SVG 1.1//EN"
 "http://www.w3.org/Graphics/SVG/1.1/DTD/svg11.dtd">
<!-- Generated by graphviz version 13.1.0 (20250701.0955)
 -->
<!-- Title: G Pages: 1 -->
<svg width="250pt" height="379pt"
 viewBox="0.00 0.00 250.00 379.00" xmlns="http://www.w3.org/2000/svg" xmlns:xlink="http://www.w3.org/1999/xlink">
<g id="graph0" class="graph" transform="scale(1 1) rotate(0) translate(4 374.74)">
<title>G</title><style>.edge>path:hover{stroke-width:8}</style>
<polygon fill="white" stroke="none" points="-4,4 -4,-374.74 245.65,-374.74 245.65,4 -4,4"/>
<!-- backend -->
<g id="node1" class="node">
<title>backend</title><style>.edge>path:hover{stroke-width:8}</style>
<ellipse fill="#b65353" stroke="black" cx="67.21" cy="-131.63" rx="31.72" ry="18"/>
<text xml:space="preserve" text-anchor="middle" x="67.21" y="-128.13" font-family="Helvetica,sans-Serif" font-size="10.00" fill="#ffffff">backend</text>
</g>
<!-- main_py -->
<g id="node6" class="node">
<title>main_py</title><style>.edge>path:hover{stroke-width:8}</style>
<ellipse fill="#56569f" stroke="black" cx="111.21" cy="-18" rx="30.37" ry="18"/>
<text xml:space="preserve" text-anchor="middle" x="111.21" y="-14.5" font-family="Helvetica,sans-Serif" font-size="10.00" fill="#ffffff">main.py</text>
</g>
<!-- backend&#45;&gt;main_py -->
<g id="edge1" class="edge">
<title>backend&#45;&gt;main_py</title><style>.edge>path:hover{stroke-width:8}</style>
<path fill="none" stroke="black" d="M86.17,-116.71C98.12,-106.21 111.29,-90.62 111.21,-73"/>
<path fill="none" stroke="black" d="M111.21,-72C111.18,-64.06 111.17,-55.44 111.17,-47.52"/>
<polygon fill="#b65353" stroke="black" points="114.67,-47.7 111.17,-37.7 107.67,-47.7 114.67,-47.7"/>
</g>
<!-- backend_test_app -->
<g id="node2" class="node">
<title>backend_test_app</title><style>.edge>path:hover{stroke-width:8}</style>
<ellipse fill="#a44646" stroke="black" cx="156.21" cy="-131.63" rx="39.42" ry="22.63"/>
<text xml:space="preserve" text-anchor="middle" x="156.21" y="-134.13" font-family="Helvetica,sans-Serif" font-size="10.00" fill="#ffffff">backend.</text>
<text xml:space="preserve" text-anchor="middle" x="156.21" y="-122.13" font-family="Helvetica,sans-Serif" font-size="10.00" fill="#ffffff">test_app</text>
</g>
<!-- backend_test_app&#45;&gt;main_py -->
<g id="edge2" class="edge">
<title>backend_test_app&#45;&gt;main_py</title><style>.edge>path:hover{stroke-width:8}</style>
<path fill="none" stroke="black" d="M132.71,-113.02C121.84,-102.75 111.28,-88.74 111.21,-73"/>
</g>
<!-- fastapi -->
<g id="node3" class="node">
<title>fastapi</title><style>.edge>path:hover{stroke-width:8}</style>
<ellipse fill="#53b653" stroke="black" cx="27.21" cy="-249.88" rx="27.21" ry="18"/>
<text xml:space="preserve" text-anchor="middle" x="27.21" y="-246.38" font-family="Helvetica,sans-Serif" font-size="10.00" fill="#000000">fastapi</text>
</g>
<!-- fastapi&#45;&gt;backend_test_app -->
<g id="edge3" class="edge">
<title>fastapi&#45;&gt;backend_test_app</title><style>.edge>path:hover{stroke-width:8}</style>
<path fill="none" stroke="black" d="M156.21,-190.25C158.7,-182.58 159.63,-174.03 159.72,-165.91"/>
<polygon fill="#53b653" stroke="black" points="163.22,-165.87 159.4,-155.98 156.23,-166.09 163.22,-165.87"/>
<path fill="none" stroke="black" d="M46.49,-236.85C52.1,-233.56 58.32,-230.11 64.21,-227.25 103.73,-208.12 142.63,-233.01 156.21,-191.25"/>
</g>
<!-- fastapi_middleware -->
<g id="node4" class="node">
<title>fastapi_middleware</title><style>.edge>path:hover{stroke-width:8}</style>
<ellipse fill="#53b653" stroke="black" cx="119.21" cy="-249.88" rx="46.32" ry="22.63"/>
<text xml:space="preserve" text-anchor="middle" x="119.21" y="-252.38" font-family="Helvetica,sans-Serif" font-size="10.00" fill="#000000">fastapi.</text>
<text xml:space="preserve" text-anchor="middle" x="119.21" y="-240.38" font-family="Helvetica,sans-Serif" font-size="10.00" fill="#000000">middleware</text>
</g>
<!-- fastapi_middleware&#45;&gt;backend_test_app -->
<g id="edge4" class="edge">
<title>fastapi_middleware&#45;&gt;backend_test_app</title><style>.edge>path:hover{stroke-width:8}</style>
<path fill="none" stroke="black" d="M136.09,-228.33C143.67,-217.88 151.87,-204.6 156.21,-191.25"/>
</g>
<!-- fastapi_middleware_cors -->
<g id="node5" class="node">
<title>fastapi_middleware_cors</title><style>.edge>path:hover{stroke-width:8}</style>
<ellipse fill="#53b653" stroke="black" cx="193.21" cy="-339.62" rx="48.44" ry="31.11"/>
<text xml:space="preserve" text-anchor="middle" x="193.21" y="-348.12" font-family="Helvetica,sans-Serif" font-size="10.00" fill="#000000">fastapi.</text>
<text xml:space="preserve" text-anchor="middle" x="193.21" y="-336.12" font-family="Helvetica,sans-Serif" font-size="10.00" fill="#000000">middleware.</text>
<text xml:space="preserve" text-anchor="middle" x="193.21" y="-324.12" font-family="Helvetica,sans-Serif" font-size="10.00" fill="#000000">cors</text>
</g>
<!-- fastapi_middleware_cors&#45;&gt;backend_test_app -->
<g id="edge5" class="edge">
<title>fastapi_middleware_cors&#45;&gt;backend_test_app</title><style>.edge>path:hover{stroke-width:8}</style>
<path fill="none" stroke="black" d="M190.47,-308.26C187.84,-285.54 182.94,-253.91 174.21,-227.25 168.65,-210.25 150.68,-208.27 156.21,-191.25"/>
</g>
</g>
</svg>
