<?xml version="1.0" encoding="UTF-8" standalone="no"?>
<!DOCTYPE svg PUBLIC "-//W3C//DTD SVG 1.1//EN"
 "http://www.w3.org/Graphics/SVG/1.1/DTD/svg11.dtd">
<!-- Generated by graphviz version 13.1.0 (20250701.0955)
 -->
<!-- Title: G Pages: 1 -->
<svg width="369pt" height="109pt"
 viewBox="0.00 0.00 369.00 109.00" xmlns="http://www.w3.org/2000/svg" xmlns:xlink="http://www.w3.org/1999/xlink">
<g id="graph0" class="graph" transform="scale(1 1) rotate(0) translate(21.6 87.35)">
<title>G</title>
<polygon fill="#111111" stroke="none" points="-21.6,21.6 -21.6,-87.35 347.35,-87.35 347.35,21.6 -21.6,21.6"/>
<!-- components/AnalyticsTab.js -->
<g id="node1" class="node">
<title>components/AnalyticsTab.js</title>
<path fill="none" stroke="#cfffac" d="M246.58,-23.75C246.58,-23.75 79.17,-23.75 79.17,-23.75 75.21,-23.75 71.25,-19.79 71.25,-15.83 71.25,-15.83 71.25,-7.92 71.25,-7.92 71.25,-3.96 75.21,0 79.17,0 79.17,0 246.58,0 246.58,0 250.54,0 254.5,-3.96 254.5,-7.92 254.5,-7.92 254.5,-15.83 254.5,-15.83 254.5,-19.79 250.54,-23.75 246.58,-23.75"/>
<text xml:space="preserve" text-anchor="middle" x="162.88" y="-6.45" font-family="Arial" font-size="14.00" fill="#cfffac">components/AnalyticsTab.js</text>
</g>
<!-- components/MoneyMaker/UniversalMoneyMaker.js -->
<g id="node2" class="node">
<title>components/MoneyMaker/UniversalMoneyMaker.js</title>
<path fill="none" stroke="#cfffac" d="M317.83,-65.75C317.83,-65.75 7.92,-65.75 7.92,-65.75 3.96,-65.75 0,-61.79 0,-57.83 0,-57.83 0,-49.92 0,-49.92 0,-45.96 3.96,-42 7.92,-42 7.92,-42 317.83,-42 317.83,-42 321.79,-42 325.75,-45.96 325.75,-49.92 325.75,-49.92 325.75,-57.83 325.75,-57.83 325.75,-61.79 321.79,-65.75 317.83,-65.75"/>
<text xml:space="preserve" text-anchor="middle" x="162.88" y="-48.45" font-family="Arial" font-size="14.00" fill="#cfffac">components/MoneyMaker/UniversalMoneyMaker.js</text>
</g>
</g>
</svg>
